# xmcd
#
# Track frame offsets:
#	150
#	13925
#	27800
#	38787
#	59075
#	72650
#	92475
#	106925
#	120525
#	132125
#	143362
#	154862
#	171407
#	186662
#
# Disc length: 2636 seconds
#
# Revision: 3
# Processed by: cddbd v1.5.1PL0 Copyright (c) Steve Scherf et al.
# Submitted via: EasyCDDAExtractor 8.2.1.1
#
DISCID=c50a4a0e
DTITLE=Smokey Robinson - Tears Of a Clown
DYEAR=1982
DGENRE=Blues
TTITLE0=Tears Of A Clown
TTITLE1=You Ain't Livin' Till You're Lovin'
TTITLE2=Save Me
TTITLE3=Medley: a) Something b) Something Got You
TTITLE4=We Had A Love So Strong
TTITLE5=You've Lost That Lovin' Feelin'
TTITLE6=My Girl
TTITLE7=The Hunter Gets Captured By The Game
TTITLE8=More, More, More Of Your Love
TTITLE9=(Come 'Round Here) I'm The One You Need
TTITLE10=You Must Be Love
TTITLE11=I Can't Stand To See You Cry
TTITLE12=It Will Be Alright
TTITLE13=The Composer
EXTD=
EXTT0=
EXTT1=
EXTT2=
EXTT3=
EXTT4=
EXTT5=
EXTT6=
EXTT7=
EXTT8=
EXTT9=
EXTT10=
EXTT11=
EXTT12=
EXTT13=
PLAYORDER=
